{
  "asset": {
    "version": "2.0",
    "generator": "THREE.GLTFExporter"
  },
  "scenes": [
    {
      "nodes": [
        0
      ]
    }
  ],
  "scene": 0,
  "nodes": [
    {
      "children": [
        8
      ],
      "matrix": [
        0.01,
        0,
        0,
        0,
        0,
        0.01,
        0,
        0,
        0,
        0,
        0.01,
        0,
        0,
        0,
        0,
        1
      ]
    },
    {
      "matrix": [
        1,
        0,
        0,
        0,
        0,
        1,
        0,
        0,
        0,
        0,
        1,
        0,
        -0.010210156440735002,
        -0.0004675984382629429,
        -0.10966880865290018,
        1
      ],
      "name": "model",
      "mesh": 0
    },
    {
      "matrix": [
        1,
        0,
        0,
        0,
        0,
        1,
        0,
        0,
        0,
        0,
        1,
        0,
        0.006338987300412421,
        0.125710163696414,
        -0.16516260671189947,
        1
      ],
      "name": "Scene",
      "children": [
        1
      ]
    },
    {
      "matrix": [
        694.9766917111554,
        -226.7191948136978,
        0.01765703154008074,
        0,
        275.4498184459316,
        844.35392099843,
        2.126663287425289,
        0,
        -0.5347542212761247,
        -1.5848174157624848,
        698.4861030952187,
        0,
        -97.72602216452805,
        -94.3816251400018,
        215.71778252634408,
        1
      ],
      "name": "hyperrealistic avocado (1)",
      "children": [
        2
      ]
    },
    {
      "matrix": [
        0.05507862195503131,
        -0.32559263124733007,
        -0.9439045417207054,
        0,
        -0.9859916794130001,
        -0.16679450868758075,
        0,
        0,
        -0.15743809428428113,
        0.9306820242967565,
        -0.3302184369762311,
        0,
        0,
        0,
        0,
        1
      ],
      "name": "Directional Light 2",
      "extensions": {
        "KHR_lights_punctual": {
          "light": 0
        }
      }
    },
    {
      "matrix": [
        0.06673525883896136,
        -0.33453525204762424,
        -0.9400173245026547,
        0,
        -0.980677402373975,
        -0.1956318800017843,
        0,
        0,
        -0.18389735642670169,
        0.9218537479797975,
        -0.3411267061296589,
        0,
        0,
        0,
        0,
        1
      ],
      "name": "Directional Light",
      "extensions": {
        "KHR_lights_punctual": {
          "light": 1
        }
      }
    },
    {
      "matrix": [
        0.13426957785344928,
        -2.9785844006535722e-8,
        -0.99094484229096,
        0,
        -0.032948571207012216,
        0.9994470773234128,
        -0.004464446785944931,
        0,
        0.9903969265493876,
        0.0332496560837432,
        0.13419533617767732,
        0,
        990.3969265493866,
        33.24965608374323,
        134.19533617767917,
        1
      ],
      "name": "Play Camera",
      "camera": 0
    },
    {
      "matrix": [
        1,
        0,
        0,
        0,
        0,
        1,
        0,
        0,
        0,
        0,
        1,
        0,
        0,
        1,
        0,
        1
      ],
      "name": "Default Ambient Light"
    },
    {
      "name": "Scene 2",
      "children": [
        3,
        4,
        5,
        6,
        7
      ]
    }
  ],
  "bufferViews": [
    {
      "buffer": 0,
      "byteOffset": 0,
      "byteLength": 350400,
      "target": 34962,
      "byteStride": 12
    },
    {
      "buffer": 0,
      "byteOffset": 350400,
      "byteLength": 350400,
      "target": 34962,
      "byteStride": 12
    },
    {
      "buffer": 0,
      "byteOffset": 700800,
      "byteLength": 233600,
      "target": 34962,
      "byteStride": 8
    },
    {
      "buffer": 0,
      "byteOffset": 934400,
      "byteLength": 299996,
      "target": 34963
    }
  ],
  "buffers": [
    {
      "byteLength": 1234396,
      "uri": "data:application/octet-stream;base64,"
    }
  ],
  "accessors": [
    {
      "bufferView": 0,
      "componentType": 5126,
      "count": 29200,
      "max": [
        0.4536621570587158,
        0.5274977684020996,
        1.0366780757904053
      ],
      "min": [
        -0.5463378429412842,
        -0.4725022315979004,
        -0.9958648085594177
      ],
      "type": "VEC3"
    },
    {
      "bufferView": 1,
      "componentType": 5126,
      "count": 29200,
      "max": [
        0.9999802112579346,
        1,
        0.9999460577964783
      ],
      "min": [
        -0.9999778866767883,
        -0.9999115467071533,
        -0.9997886419296265
      ],
      "type": "VEC3"
    },
    {
      "bufferView": 2,
      "componentType": 5126,
      "count": 29200,
      "max": [
        0.9984086751937866,
        0.9984085559844971
      ],
      "min": [
        0.0015914082759991288,
        0.0015913844108581543
      ],
      "type": "VEC2"
    },
    {
      "bufferView": 3,
      "componentType": 5123,
      "count": 149997,
      "max": [
        29199
      ],
      "min": [
        0
      ],
      "type": "SCALAR"
    }
  ],
  "meshes": [
    {
      "primitives": [
        {
          "mode": 4,
          "attributes": {
            "POSITION": 0,
            "NORMAL": 1,
            "TEXCOORD_0": 2
          },
          "extras": {
            "parameters": {
              "width": 1.0000000000000002,
              "height": 1.0000000000000002,
              "depth": 2.0325429190674273,
              "subdivisions": 0
            },
            "type": "NonParametricGeometry"
          },
          "indices": 3
        }
      ]
    }
  ],
  "extensions": {
    "KHR_lights_punctual": {
      "lights": [
        {
          "name": "Directional Light 2",
          "color": [
            1,
            1,
            1
          ],
          "intensity": 0.07,
          "type": "directional"
        },
        {
          "name": "Directional Light",
          "color": [
            1,
            1,
            1
          ],
          "intensity": 0.61,
          "type": "directional"
        }
      ]
    }
  },
  "cameras": [
    {
      "type": "orthographic",
      "orthographic": {
        "xmag": 35.78,
        "ymag": 17.82,
        "zfar": 100000,
        "znear": 0
      },
      "name": "Camera"
    }
  ],
  "extensionsUsed": [
    "KHR_lights_punctual"
  ]
}